<svg xmlns="http://www.w3.org/2000/svg" viewBox="-318 -632.615 1606.615 1606.615" width="100%" height="100%">
                <style>
                    .conn { stroke: #bbbbbb; stroke-width: 1px; fill: none; }
                    .master { fill: #000000; stroke: #000000; stroke-width: 1px; }
                    .node { fill: #000000; }
                    .label { fill: #111111; font-family: "Helvetica Neue", Helvetica, Arial, sans-serif; font-size: 11px; text-anchor: middle; }
                    .label-bold { font-weight: bold; font-size: 12px; }
                    .ghost { fill: #ffcc00; opacity: 0.7; mix-blend-mode: multiply; }
                </style>
                <g id="connections"><line class="conn" style="stroke-width:2px;" x1="0" y1="0" x2="656" y2="0" /><line class="conn" style="stroke-width:2px;" x1="0" y1="0" x2="0" y2="656" /><line class="conn" style="stroke-width:2px;" x1="0" y1="0" x2="314.615" y2="-314.615" /><line class="conn" style="stroke-width:2px;" x1="656" y1="0" x2="656" y2="656" /><line class="conn" style="stroke-width:2px;" x1="656" y1="0" x2="970.615" y2="-314.615" /><line class="conn" style="stroke-width:2px;" x1="0" y1="656" x2="656" y2="656" /><line class="conn" style="stroke-width:2px;" x1="0" y1="656" x2="314.615" y2="341.385" /><line class="conn" style="stroke-width:2px;" x1="656" y1="656" x2="970.615" y2="341.385" /><line class="conn" style="stroke-width:2px;" x1="314.615" y1="-314.615" x2="970.615" y2="-314.615" /><line class="conn" style="stroke-width:2px;" x1="314.615" y1="-314.615" x2="314.615" y2="341.385" /><line class="conn" style="stroke-width:2px;" x1="970.615" y1="-314.615" x2="970.615" y2="341.385" /><line class="conn" style="stroke-width:2px;" x1="314.615" y1="341.385" x2="970.615" y2="341.385" /><text class="label label-bold" x="328" y="-20">WGHT</text><text class="label label-bold" x="0" y="308">WDTH</text><text class="label label-bold" x="157.3075" y="-177.3075">OPSZ</text><text class="label label-bold" x="656" y="308">WDTH</text><text class="label label-bold" x="813.3075" y="-177.3075">OPSZ</text><text class="label label-bold" x="328" y="636">WGHT</text><text class="label label-bold" x="157.3075" y="478.6925">OPSZ</text><text class="label label-bold" x="813.3075" y="478.6925">OPSZ</text><text class="label label-bold" x="642.615" y="-334.615">WGHT</text><text class="label label-bold" x="314.615" y="-6.615000000000009">WDTH</text><text class="label label-bold" x="970.615" y="-6.615000000000009">WDTH</text><text class="label label-bold" x="642.615" y="321.385">WGHT</text></g><g id="masters"><path class="master" d="M 30.528 -146.28 Q 48.336 -154.548 64.872 -158.364 Q 81.408 -162.18 100.488 -162.18 Q 117.66 -162.18 129.744 -159.159 Q 141.828 -156.138 149.46 -149.46 Q 157.092 -142.782 160.59 -132.129 Q 164.088 -121.476 164.088 -106.53 L 164.088 -50.244 Q 164.088 -39.75 164.247 -31.959 Q 164.406 -24.168 164.565 -18.444 Q 164.724 -12.72 165.201 -8.268 Q 165.678 -3.816 166.314 0 L 127.2 0 Q 126.882 -1.59 126.56400000000001 -3.339 Q 126.246 -5.088 126.087 -7.155 Q 125.928 -9.222 125.928 -11.607 Q 125.928 -13.992 125.928 -16.854 Q 125.928 -19.398 125.928 -22.101 Q 125.928 -24.804000000000002 125.928 -27.507 Q 125.928 -30.21 125.928 -32.913000000000004 Q 125.928 -35.616 125.928 -38.478 L 125.928 -31.164 Q 123.066 -23.214 117.97800000000001 -16.854 Q 112.89 -10.494 105.894 -6.042 Q 98.898 -1.59 90.153 0.795 Q 81.408 3.18 71.232 3.18 Q 48.654 3.18 36.093 -8.427 Q 23.532 -20.034 23.532 -41.022 Q 23.532 -56.286 30.846 -67.257 Q 38.160000000000004 -78.228 53.265 -85.383 Q 68.37 -92.538 91.584 -96.036 Q 114.798 -99.534 146.598 -99.534 L 146.598 -81.408 Q 106.212 -81.408 84.58800000000001 -72.186 Q 62.964 -62.964 62.964 -45.156 Q 62.964 -34.026 70.437 -26.076 Q 77.91 -18.126 88.086 -18.126 Q 95.08200000000001 -18.126 101.919 -22.26 Q 108.756 -26.394000000000002 114.003 -33.231 Q 119.25 -40.068 122.589 -48.654 Q 125.928 -57.24 125.928 -66.144 L 125.928 -44.202 L 125.928 -108.438 Q 125.928 -124.656 119.409 -131.493 Q 112.89 -138.33 97.626 -138.33 Q 89.994 -138.33 82.362 -136.581 Q 74.73 -134.832 67.098 -131.493 Q 59.466 -128.154 51.834 -122.907 Q 44.202 -117.66 36.57 -110.664 Z " /><text class="label" x="0" y="20">MASTER [0]</text><text class="label" x="0" y="35">wght:400 | wdth:100 | opsz:12</text><path class="master" d="M 680.168 -146.28 Q 698.294 -154.548 716.42 -158.364 Q 734.546 -162.18 755.7541538461538 -162.18 Q 774.8414923076923 -162.18 788.2733230769231 -159.159 Q 801.7051538461538 -156.138 810.1884153846154 -149.46 Q 818.6716769230769 -142.782 822.5598384615384 -132.129 Q 826.448 -121.476 826.448 -106.53 L 826.448 -50.244 Q 826.448 -40.26190243902439 826.607 -32.8509512195122 Q 826.766 -25.44 826.925 -19.414736842105263 Q 827.0840000000001 -13.389473684210527 827.561 -8.703157894736844 Q 828.038 -4.016842105263158 828.674 0 L 773.66 0 Q 773.342 -1.39125 773.024 -2.921625 Q 772.706 -4.452 772.547 -6.592821428571429 Q 772.388 -8.733642857142858 772.388 -11.20382142857143 Q 772.388 -13.674 772.388 -16.70435294117647 Q 772.388 -19.398 772.388 -22.101 Q 772.388 -24.804000000000002 772.388 -27.507 Q 772.388 -30.21 772.388 -32.913000000000004 Q 772.388 -35.616 772.388 -38.478 L 772.388 -31.080886363636363 Q 769.8052195121951 -23.040545454545455 765.2136097560975 -16.608272727272727 Q 760.622 -10.176 754.103 -5.724 Q 747.5840000000001 -1.272 739.634 0.954 Q 731.684 3.18 722.144 3.18 Q 699.566 3.18 686.369 -8.745000000000001 Q 673.172 -20.67 673.172 -41.658 Q 673.172 -56.66107692307693 680.804 -67.44453846153846 Q 688.436 -78.228 704.3383313782991 -85.383 Q 720.2406627565982 -92.538 744.6800351906159 -96.036 Q 769.1194076246335 -99.534 802.598 -99.534 L 802.598 -78.228 Q 766.664 -78.228 747.5840000000001 -70.278 Q 728.504 -62.328 728.504 -46.428 Q 728.504 -37.842 733.6121265822785 -31.164 Q 738.720253164557 -24.486 745.676 -24.486 Q 750.6731428571429 -24.486 755.5567142857143 -28.320434782608697 Q 760.4402857142857 -32.15486956521739 764.1881428571429 -38.496434782608695 Q 767.936 -44.838 770.162 -52.90046341463415 Q 772.388 -60.9629268292683 772.388 -69.324 L 772.388 -44.202 L 772.388 -104.09772972972974 Q 772.388 -119.21991891891892 766.028 -125.59495945945946 Q 759.668 -131.97 743.45 -131.97 Q 736.136 -131.97 729.14 -130.698 Q 722.144 -129.42600000000002 715.466 -126.882 Q 708.788 -124.33800000000001 702.428 -120.23580000000001 Q 696.068 -116.1336 689.708 -110.664 Z " /><text class="label" x="656" y="20">MASTER [1]</text><text class="label" x="656" y="35">wght:900 | wdth:100 | opsz:12</text><path class="master" d="M 30.528 509.72 Q 55.332 501.452 78.228 497.63599999999997 Q 101.124 493.82 127.836 493.82 Q 152.004 493.82 168.858 496.841 Q 185.712 499.86199999999997 196.365 506.53999999999996 Q 207.018 513.218 211.947 523.871 Q 216.876 534.524 216.876 549.47 L 216.876 605.756 Q 216.876 615.296 217.353 622.769 Q 217.83 630.242 218.466 636.125 Q 219.102 642.008 220.056 646.937 Q 221.01 651.866 222.282 656 L 181.578 656 Q 180.624 653.138 180.147 650.594 Q 179.67000000000002 648.05 179.352 645.347 Q 179.034 642.644 178.875 639.4639999999999 Q 178.716 636.284 178.716 632.15 Q 178.716 628.652 178.716 625.79 Q 178.716 622.928 178.716 620.225 Q 178.716 617.522 178.716 614.978 Q 178.716 612.434 178.716 610.208 L 178.716 617.522 Q 171.084 627.698 161.544 635.489 Q 152.004 643.28 140.715 648.527 Q 129.42600000000002 653.774 116.547 656.477 Q 103.668 659.18 89.04 659.18 Q 57.24 659.18 39.273 648.527 Q 21.306 637.874 21.306 615.932 Q 21.306 600.35 30.051000000000002 589.379 Q 38.796 578.408 59.625 571.571 Q 80.45400000000001 564.734 114.639 561.713 Q 148.824 558.692 199.386 558.692 L 199.386 574.592 Q 133.87800000000001 574.592 98.739 584.2909999999999 Q 63.6 593.99 62.964 613.388 Q 62.328 624.518 73.458 631.196 Q 84.58800000000001 637.874 104.622 637.874 Q 120.84 637.874 134.355 633.422 Q 147.87 628.97 157.728 621.338 Q 167.586 613.706 173.151 603.053 Q 178.716 592.4 178.716 579.998 L 178.716 611.798 L 178.716 546.29 Q 178.716 530.708 165.837 523.235 Q 152.958 515.762 123.384 515.762 Q 111.618 515.762 100.647 517.034 Q 89.676 518.306 78.864 520.85 Q 68.052 523.394 57.558 527.369 Q 47.064 531.344 36.57 537.068 Z " /><text class="label" x="0" y="676">MASTER [2]</text><text class="label" x="0" y="691">wght:400 | wdth:150 | opsz:12</text><path class="master" d="M 343.235 -458.987 Q 360.089 -468.209 376.466 -472.502 Q 392.843 -476.795 410.015 -476.795 Q 424.961 -476.795 437.522 -473.774 Q 450.08299999999997 -470.75300000000004 459.146 -463.439 Q 468.209 -456.125 473.456 -444.04100000000005 Q 478.703 -431.957 478.703 -414.149 L 478.703 -364.85900000000004 Q 478.703 -354.365 479.021 -347.369 Q 479.339 -340.373 480.293 -335.12600000000003 Q 481.247 -329.879 482.837 -325.586 Q 484.427 -321.293 486.971 -316.523 L 445.313 -312.707 Q 444.35900000000004 -314.615 443.564 -318.431 Q 442.769 -322.247 442.13300000000004 -326.699 Q 441.497 -331.151 441.17900000000003 -335.921 Q 440.861 -340.69100000000003 440.861 -344.825 Q 440.861 -346.415 440.861 -347.846 Q 440.861 -349.277 440.702 -352.139 Q 440.543 -355.00100000000003 440.543 -359.612 Q 440.543 -364.223 440.543 -372.173 L 440.543 -359.771 Q 439.90700000000004 -350.867 434.183 -342.122 Q 428.459 -333.377 419.873 -326.54 Q 411.28700000000003 -319.70300000000003 400.634 -315.569 Q 389.981 -311.435 379.169 -311.435 Q 360.725 -311.435 349.43600000000004 -323.678 Q 338.147 -335.921 338.147 -355.95500000000004 Q 338.147 -370.265 344.825 -380.44100000000003 Q 351.503 -390.617 366.29 -397.136 Q 381.077 -403.65500000000003 404.45000000000005 -406.517 Q 427.823 -409.379 461.213 -409.379 L 461.213 -404.60900000000004 Q 417.011 -404.60900000000004 397.295 -394.115 Q 377.579 -383.621 377.579 -361.997 Q 377.579 -347.687 384.73400000000004 -340.214 Q 391.889 -332.741 403.973 -332.741 Q 412.559 -332.741 419.396 -336.716 Q 426.233 -340.69100000000003 431.00300000000004 -348.323 Q 435.773 -355.95500000000004 438.158 -367.08500000000004 Q 440.543 -378.21500000000003 440.543 -392.525 L 440.543 -361.67900000000003 L 440.543 -423.053 Q 440.543 -447.85699999999997 432.752 -459.464 Q 424.961 -471.071 407.789 -471.071 Q 402.065 -471.071 395.86400000000003 -469.004 Q 389.663 -466.937 382.66700000000003 -461.054 Q 375.671 -455.17100000000005 367.88 -444.836 Q 360.089 -434.501 351.185 -417.96500000000003 Z " /><text class="label" x="314.615" y="-294.615">MASTER [4]</text><text class="label" x="314.615" y="-279.615">wght:400 | wdth:100 | opsz:72</text><path class="master" d="M 680.168 509.72 Q 705.29 501.452 729.776 497.63599999999997 Q 754.262 493.82 783.1021538461539 493.82 Q 809.1854923076924 493.82 827.387323076923 496.841 Q 845.5891538461539 499.86199999999997 857.0934153846154 506.53999999999996 Q 868.597676923077 513.218 873.9168384615384 523.871 Q 879.236 534.524 879.236 549.47 L 879.236 605.756 Q 879.236 614.7840975609756 879.713 621.8770487804878 Q 880.19 628.97 880.826 635.1542631578948 Q 881.462 641.3385263157895 882.4159999999999 646.5018421052631 Q 883.37 651.6651578947368 884.642 656 L 828.038 656 Q 827.0840000000001 653.33675 826.607 651.011375 Q 826.13 648.686 825.812 645.9091785714286 Q 825.494 643.1323571428571 825.335 639.8671785714286 Q 825.176 636.602 825.176 632.2996470588236 Q 825.176 628.652 825.176 625.79 Q 825.176 622.928 825.176 620.225 Q 825.176 617.522 825.176 614.978 Q 825.176 612.434 825.176 610.208 L 825.176 617.6051136363636 Q 817.8232195121951 627.8714545454545 808.7796097560976 635.7347272727272 Q 799.736 643.598 788.924 648.845 Q 778.112 654.092 766.028 656.636 Q 753.944 659.18 739.952 659.18 Q 708.152 659.18 689.549 648.209 Q 670.946 637.238 670.946 615.296 Q 670.946 599.9749230769231 680.009 589.1914615384616 Q 689.072 578.408 710.6983313782991 571.571 Q 732.3246627565983 564.734 767.7350351906158 561.713 Q 803.1454076246334 558.692 855.386 558.692 L 855.386 577.772 Q 794.33 577.772 761.735 586.199 Q 729.14 594.626 728.504 612.116 Q 727.8679999999999 620.702 736.6331265822785 626.108 Q 745.398253164557 631.514 762.212 631.514 Q 776.4311428571428 631.514 787.9927142857143 627.3615652173913 Q 799.5542857142857 623.2091304347827 807.9131428571429 616.0725652173913 Q 816.2719999999999 608.936 820.7239999999999 598.8065365853658 Q 825.176 588.6770731707317 825.176 576.818 L 825.176 611.798 L 825.176 550.6302702702703 Q 825.176 536.144081081081 812.456 529.1330405405405 Q 799.736 522.122 769.208 522.122 Q 757.76 522.122 747.425 522.917 Q 737.09 523.712 727.232 525.461 Q 717.374 527.21 708.152 530.0402 Q 698.93 532.8704 689.708 537.068 Z " /><text class="label" x="656" y="676">MASTER [3]</text><text class="label" x="656" y="691">wght:900 | wdth:150 | opsz:12</text><path class="master" d="M 992.875 -458.987 Q 1010.047 -468.209 1028.0140000000001 -472.502 Q 1045.981 -476.795 1065.2811538461538 -476.795 Q 1082.1424923076922 -476.795 1096.0513230769232 -473.774 Q 1109.9601538461538 -470.75300000000004 1119.8744153846153 -463.439 Q 1129.788676923077 -456.125 1135.4258384615384 -444.04100000000005 Q 1141.063 -431.957 1141.063 -414.149 L 1141.063 -364.85900000000004 Q 1141.063 -354.8769024390244 1141.381 -348.2609512195122 Q 1141.699 -341.645 1142.653 -336.09673684210526 Q 1143.607 -330.54847368421053 1145.1970000000001 -326.02115789473686 Q 1146.787 -321.4938421052632 1149.3310000000001 -316.523 L 1091.773 -312.707 Q 1090.819 -314.41625 1090.0240000000001 -318.013625 Q 1089.229 -321.611 1088.593 -326.13682142857147 Q 1087.957 -330.6626428571429 1087.6390000000001 -335.51782142857144 Q 1087.321 -340.373 1087.321 -344.67535294117647 Q 1087.321 -346.415 1087.321 -347.846 Q 1087.321 -349.277 1087.162 -352.139 Q 1087.003 -355.00100000000003 1087.003 -359.612 Q 1087.003 -364.223 1087.003 -372.173 L 1087.003 -359.6878863636364 Q 1086.646219512195 -350.6935454545455 1081.4186097560976 -341.87627272727275 Q 1076.191 -333.059 1068.082 -326.222 Q 1059.973 -319.385 1050.115 -315.41 Q 1040.257 -311.435 1030.081 -311.435 Q 1011.6370000000001 -311.435 999.712 -323.996 Q 987.787 -336.557 987.787 -356.591 Q 987.787 -370.64007692307695 994.783 -380.6285384615385 Q 1001.779 -390.617 1017.3633313782991 -397.136 Q 1032.9476627565982 -403.65500000000003 1057.5460351906158 -406.517 Q 1082.1444076246335 -409.379 1117.213 -409.379 L 1117.213 -401.42900000000003 Q 1077.463 -401.42900000000003 1060.291 -392.207 Q 1043.119 -382.985 1043.119 -363.269 Q 1043.119 -351.503 1047.9091265822785 -345.302 Q 1052.699253164557 -339.101 1061.563 -339.101 Q 1068.1501428571428 -339.101 1073.0337142857143 -342.7764347826087 Q 1077.9172857142858 -346.4518695652174 1081.1881428571428 -353.5884347826087 Q 1084.459 -360.725 1085.731 -371.3314634146342 Q 1087.003 -381.9379268292683 1087.003 -395.70500000000004 L 1087.003 -361.67900000000003 L 1087.003 -418.71272972972974 Q 1087.003 -442.4209189189189 1079.371 -453.56595945945946 Q 1071.739 -464.711 1053.613 -464.711 Q 1048.207 -464.711 1042.642 -463.121 Q 1037.077 -461.531 1031.035 -456.443 Q 1024.993 -451.355 1018.474 -442.1648 Q 1011.955 -432.9746 1004.323 -417.96500000000003 Z " /><text class="label" x="970.615" y="-294.615">MASTER [5]</text><text class="label" x="970.615" y="-279.615">wght:900 | wdth:100 | opsz:72</text><path class="master" d="M 343.235 197.01299999999998 Q 367.08500000000004 187.791 389.822 183.498 Q 412.559 179.20499999999998 437.363 179.20499999999998 Q 459.305 179.20499999999998 476.636 182.226 Q 493.967 185.24699999999999 506.05100000000004 192.56099999999998 Q 518.135 199.875 524.813 211.95899999999997 Q 531.491 224.043 531.491 241.851 L 531.491 291.14099999999996 Q 531.491 300.681 532.127 307.359 Q 532.763 314.037 534.194 319.443 Q 535.625 324.849 537.692 329.61899999999997 Q 539.759 334.389 542.9390000000001 339.477 L 499.69100000000003 343.293 Q 498.101 340.113 497.14700000000005 335.502 Q 496.193 330.89099999999996 495.398 325.803 Q 494.603 320.715 494.126 315.15 Q 493.649 309.585 493.649 304.179 Q 493.649 301.635 493.649 300.04499999999996 Q 493.649 298.455 493.49 295.59299999999996 Q 493.331 292.731 493.331 288.279 Q 493.331 283.827 493.331 276.513 L 493.331 288.91499999999996 Q 487.925 300.04499999999996 477.749 310.221 Q 467.573 320.397 454.694 328.029 Q 441.815 335.661 427.028 340.113 Q 412.241 344.565 396.977 344.565 Q 369.31100000000004 344.565 352.616 333.276 Q 335.921 321.98699999999997 335.921 300.99899999999997 Q 335.921 286.371 344.03000000000003 276.195 Q 352.139 266.019 372.65000000000003 259.818 Q 393.161 253.617 427.505 251.23199999999997 Q 461.84900000000005 248.84699999999998 514.001 248.84699999999998 L 514.001 251.391 Q 444.677 251.391 411.446 262.36199999999997 Q 378.21500000000003 273.33299999999997 377.579 296.54699999999997 Q 376.943 310.85699999999997 387.755 317.058 Q 398.567 323.259 420.509 323.259 Q 438.317 323.259 451.832 318.966 Q 465.347 314.673 474.728 306.246 Q 484.10900000000004 297.81899999999996 488.72 284.622 Q 493.331 271.42499999999995 493.331 253.617 L 493.331 294.32099999999997 L 493.331 231.67499999999998 Q 493.331 207.50699999999998 479.18 195.26399999999998 Q 465.029 183.021 433.547 183.021 Q 423.689 183.021 414.149 184.611 Q 404.60900000000004 186.201 394.433 191.289 Q 384.257 196.37699999999998 373.60400000000004 205.44 Q 362.951 214.503 351.185 229.767 Z " /><text class="label" x="314.615" y="361.385">MASTER [6]</text><text class="label" x="314.615" y="376.385">wght:400 | wdth:150 | opsz:72</text><path class="master" d="M 992.875 197.01299999999998 Q 1017.043 187.791 1041.37 183.498 Q 1065.6970000000001 179.20499999999998 1092.629153846154 179.20499999999998 Q 1116.4864923076923 179.20499999999998 1135.165323076923 182.226 Q 1153.8441538461539 185.24699999999999 1166.7794153846153 192.56099999999998 Q 1179.714676923077 199.875 1186.7828384615384 211.95899999999997 Q 1193.851 224.043 1193.851 241.851 L 1193.851 291.14099999999996 Q 1193.851 300.1690975609756 1194.487 306.4670487804878 Q 1195.123 312.765 1196.554 318.4722631578947 Q 1197.9850000000001 324.1795263157895 1200.0520000000001 329.1838421052631 Q 1202.119 334.18815789473683 1205.299 339.477 L 1146.151 343.293 Q 1144.561 340.31175 1143.607 335.919375 Q 1142.653 331.527 1141.858 326.36517857142854 Q 1141.063 321.20335714285716 1140.586 315.5531785714286 Q 1140.109 309.903 1140.109 304.32864705882355 Q 1140.109 301.635 1140.109 300.04499999999996 Q 1140.109 298.455 1139.95 295.59299999999996 Q 1139.791 292.731 1139.791 288.279 Q 1139.791 283.827 1139.791 276.513 L 1139.791 288.99811363636366 Q 1134.6642195121951 300.21845454545456 1124.9846097560976 310.46672727272727 Q 1115.305 320.715 1102.903 328.347 Q 1090.501 335.979 1076.509 340.272 Q 1062.517 344.565 1047.8890000000001 344.565 Q 1020.223 344.565 1002.892 332.95799999999997 Q 985.561 321.351 985.561 300.363 Q 985.561 285.9959230769231 993.988 276.00746153846154 Q 1002.415 266.019 1023.7233313782991 259.818 Q 1045.0316627565983 253.617 1080.601035190616 251.23199999999997 Q 1116.1704076246335 248.84699999999998 1170.001 248.84699999999998 L 1170.001 254.57099999999997 Q 1105.129 254.57099999999997 1074.442 264.27 Q 1043.755 273.969 1043.119 295.275 Q 1042.483 307.041 1050.9301265822785 311.96999999999997 Q 1059.377253164557 316.899 1078.099 316.899 Q 1093.9081428571428 316.899 1105.4697142857144 312.9055652173913 Q 1117.0312857142858 308.9121304347826 1124.913142857143 300.9805652173913 Q 1132.795 293.049 1136.2930000000001 280.3755365853658 Q 1139.791 267.7020731707317 1139.791 250.43699999999998 L 1139.791 294.32099999999997 L 1139.791 236.01527027027026 Q 1139.791 212.94308108108106 1125.799 201.16204054054052 Q 1111.807 189.381 1079.371 189.381 Q 1069.8310000000001 189.381 1060.927 190.494 Q 1052.023 191.607 1042.801 195.89999999999998 Q 1033.579 200.19299999999998 1024.198 208.11119999999997 Q 1014.817 216.0294 1004.323 229.767 Z " /><text class="label" x="970.615" y="361.385">MASTER [7]</text><text class="label" x="970.615" y="376.385">wght:900 | wdth:150 | opsz:72</text></g><g id="ghosts"><path class="ghost" d="M 279.0032244149342 -146.28 Q 296.9328617440358 -154.548 314.07704838954356 -158.364 Q 331.2212350350514 -162.18 351.1152694682695 -162.18 Q 369.01990045816586 -162.18 381.619455599204 -159.159 Q 394.2190107402422 -156.138 402.1766245135294 -149.46 Q 410.13423828681675 -142.782 413.7814779329067 -132.129 Q 417.4287175789967 -121.476 417.4287175789967 -106.53 L 417.4287175789967 -50.244 Q 417.4287175789967 -39.94580643221227 417.5877175789967 -32.30017787430926 Q 417.7467175789967 -24.65454931640625 417.9057175789967 -18.815313951994245 Q 418.0647175789967 -12.976078587582236 418.54171757899667 -8.434451081928454 Q 419.0187175789967 -3.892823576274671 419.6547175789967 0 L 374.4588511239186 0 Q 374.1408511239186 -1.5139766693115235 373.82285112391855 -3.1793510055541994 Q 373.50485112391857 -4.844725341796875 373.3458511239186 -6.939962578909738 Q 373.1868511239186 -9.035199816022601 373.1868511239186 -11.45278124346052 Q 373.1868511239186 -13.870362670898437 373.1868511239186 -16.796758903952206 Q 373.1868511239186 -19.398 373.1868511239186 -22.101 Q 373.1868511239186 -24.804000000000002 373.1868511239186 -27.507 Q 373.1868511239186 -30.21 373.1868511239186 -32.913000000000004 Q 373.1868511239186 -35.616 373.1868511239186 -38.478 L 373.1868511239186 -31.13220842534846 Q 370.431654632398 -23.147652365944605 365.53352753636136 -16.76000751842152 Q 360.6354004403248 -10.372362670898438 353.82185643397713 -5.920362670898437 Q 347.0083124276295 -1.4683626708984374 338.5674057503834 0.8558186645507813 Q 330.1264990731373 3.18 320.19377373134046 3.18 Q 297.6157737313404 3.18 284.8114990731373 -8.548637329101563 Q 272.00722441493417 -20.277274658203126 272.00722441493417 -41.265274658203126 Q 272.00722441493417 -56.42946967022235 279.4428617440358 -67.32873483511118 Q 286.87849907313733 -78.228 302.28848416516615 -85.383 Q 317.69846925719503 -92.538 341.3811831881025 -96.036 Q 365.06389711901 -99.534 397.50597099696546 -99.534 L 397.50597099696546 -80.19162670898437 Q 358.82289360438733 -80.19162670898437 338.1719922371998 -71.45617602539063 Q 317.5210908700123 -62.72072534179688 317.5210908700123 -45.64254931640625 Q 317.5210908700123 -35.48564794921875 324.0895094668836 -28.022197265625 Q 330.6579280637549 -20.55874658203125 339.60215764247323 -20.55874658203125 Q 345.83358014526345 -20.55874658203125 351.92337940935386 -24.578160692297896 Q 358.01317867344426 -28.597574802564537 362.6867455505369 -35.24506736954399 Q 367.36031242762954 -41.89255993652344 370.27358177577406 -50.278303358124525 Q 373.1868511239186 -58.66404677972561 373.1868511239186 -67.36037329101562 L 373.1868511239186 -44.202 L 373.1868511239186 -106.77781483253273 Q 373.1868511239186 -122.5766591714395 366.72866978846935 -129.23695629470413 Q 360.2704884530201 -135.89725341796876 344.64157646571545 -135.89725341796876 Q 337.13121379481703 -135.89725341796876 329.74248845302014 -134.3307094116211 Q 322.35376311122326 -132.76416540527345 315.08667509852796 -129.72925872802733 Q 307.8195870858326 -126.69435205078125 300.6741364022389 -121.88524643554688 Q 293.52868571864514 -117.0761408203125 286.38323503505137 -110.664 Z " /><text class="label" x="250.90797099696545" y="0">wght:591 | wdth:100 | opsz:12</text><path class="ghost" d="M 30.528 346.02847226507015 Q 53.586416015625 337.7604722650701 74.895521484375 333.9444722650701 Q 96.204626953125 330.1284722650701 121.01235351562501 330.1284722650701 Q 143.43476953125 330.1284722650701 159.0985986328125 333.14947226507013 Q 174.762427734375 336.1704722650701 184.66165283203125 342.8484722650701 Q 194.5608779296875 349.5264722650701 199.13282666015624 360.1794722650701 Q 203.704775390625 370.8324722650701 203.704775390625 385.77847226507015 L 203.704775390625 442.0644722650701 Q 203.704775390625 451.84250644475765 204.1024306640625 459.3948511713201 Q 204.5000859375 466.94719589788264 205.01706884765625 472.7905235346014 Q 205.5340517578125 478.63385117132015 206.36903466796875 483.4438340814764 Q 207.204017578125 488.2538169916326 208.31732812500002 492.3084722650701 L 168.0100517578125 492.3084722650701 Q 167.2147412109375 489.76385117132014 166.77741357421874 487.41821298772635 Q 166.3400859375 485.0725748041326 166.06175830078126 482.5282642572576 Q 165.7834306640625 479.9839537103826 165.66410302734374 477.0023155267889 Q 165.544775390625 474.02067734319513 165.544775390625 470.2040562494451 Q 165.544775390625 466.94409042913264 165.544775390625 464.12176279241385 Q 165.544775390625 461.2994351556951 165.544775390625 458.59643515569513 Q 165.544775390625 455.8934351556951 165.544775390625 453.3097627924139 Q 165.544775390625 450.7260904291326 165.544775390625 448.3414009760076 L 165.544775390625 455.6554009760076 Q 159.10294628906252 465.2759878900701 150.6737724609375 472.7099366205389 Q 142.2445986328125 480.1438853510076 132.02675244140624 485.1925235346014 Q 121.80890625 490.24116171819514 109.9613876953125 492.8648169916326 Q 98.113869140625 495.48847226507013 84.5966953125 495.48847226507013 Q 55.097692382812504 495.48847226507013 38.479552734375 484.59743808538263 Q 21.8614130859375 473.70640390569514 21.8614130859375 452.0024380853826 Q 21.8614130859375 436.4997828119451 30.24936181640625 425.5287828119451 Q 38.637310546875 414.5577828119451 58.038105468750004 407.6414380853826 Q 77.43890039062501 400.7250933588201 108.88650732421875 397.58507626897637 Q 140.3341142578125 394.4450591791326 186.214775390625 394.4450591791326 L 186.214775390625 410.9004722650701 Q 126.9750087890625 410.9004722650701 95.20815966796876 420.4804551752264 Q 63.441310546875 430.0604380853826 62.964 449.06171445257013 Q 62.486689453125 460.1917144525701 72.70422509765625 467.1870933588201 Q 82.9217607421875 474.18247226507015 100.49607421875 474.18247226507015 Q 114.4130771484375 474.18247226507015 126.261837890625 469.8098169916326 Q 138.1105986328125 465.4371617181951 146.81810009765624 458.00352353460136 Q 155.52560156250001 450.5698853510076 160.5351884765625 440.43262607366387 Q 165.544775390625 430.29536679632014 165.544775390625 418.7661587885076 L 165.544775390625 448.1064722650701 L 165.544775390625 382.9158511713201 Q 165.544775390625 367.1751617181951 154.252669921875 359.8608511713201 Q 142.96056445312502 352.54654062444513 116.9570771484375 352.54654062444513 Q 106.22255859375001 352.54654062444513 96.08467822265625 353.93755771428886 Q 85.94679785156251 355.3285748041326 75.9282451171875 358.0709366205389 Q 65.9096923828125 360.81329843694516 56.129794921875 365.1056773431951 Q 46.3498974609375 369.3980562494451 36.57 375.43943515569515 Z " /><text class="label" x="0" y="492.3084722650701">wght:400 | wdth:138 | opsz:12</text><path class="ghost" d="M 65.83071968973967 -181.5827196897397 Q 83.53099874247404 -189.9584406370053 100.0490452512631 -193.8283011106381 Q 116.56709176005216 -197.6981615842709 135.4316498655209 -197.6981615842709 Q 152.35230098856778 -197.6981615842709 164.4901614622006 -194.6771615842709 Q 176.62802193583343 -191.65616158427093 184.42160335673185 -184.90634761942715 Q 192.21518477763027 -178.15653365458343 195.9106731809506 -167.341952233685 Q 199.60616158427092 -156.52737081278656 199.60616158427092 -141.25820797098964 L 199.60616158427092 -85.76216158427091 Q 199.60616158427092 -75.26816158427091 199.78311507548187 -67.5669290403256 Q 199.96006856669277 -59.86569649638029 200.2088360227475 -54.1955569700131 Q 200.45760347880218 -48.525417443645914 201.0602779172787 -44.091370934856855 Q 201.6629523557553 -39.65732442606779 202.51439425028656 -35.733603478802166 L 163.11313839091156 -35.30271968973966 Q 162.7233244260678 -36.92862667216154 162.35146395243498 -38.91102205790373 Q 161.97960347880218 -40.893417443645916 161.76674300516936 -43.22971981180998 Q 161.55388253153654 -45.56602217997404 161.51797554911468 -48.2203245481381 Q 161.4820685666928 -50.87462691630216 161.4820685666928 -53.88025484598967 Q 161.4820685666928 -56.31653389872404 161.4820685666928 -58.87590596903654 Q 161.4820685666928 -61.43527803934904 161.46411507548186 -64.15623153055998 Q 161.4461615842709 -66.87718502177091 161.4461615842709 -69.79562691630215 Q 161.4461615842709 -72.71406881083342 161.4461615842709 -76.15058052958341 L 161.4461615842709 -68.26206881083341 Q 158.83551046122403 -60.20434786356779 153.67569649638028 -53.57504549540373 Q 148.51588253153653 -46.945743127239666 141.34034761942718 -42.2244407590756 Q 134.1648127073178 -37.50313839091154 125.20437081278654 -34.920649987591226 Q 116.24392891825529 -32.338161584270914 105.99611495341153 -32.338161584270914 Q 83.88490572489592 -32.338161584270914 71.4675336545834 -44.01697554911466 Q 59.05016158427091 -55.69578951395842 59.05016158427091 -76.57606856669278 Q 59.05016158427091 -91.73234761942717 66.29234761942716 -102.61358016337248 Q 73.53453365458341 -113.49481270731779 88.60362667216154 -120.57799874247404 Q 103.67271968973967 -127.6611847776303 126.9046731809506 -131.08737081278656 Q 150.13662667216153 -134.5135568479428 182.1161615842709 -134.5135568479428 L 182.1161615842709 -117.89565010966155 Q 141.2992777952084 -117.89565010966155 119.89071968973967 -108.53002217997404 Q 98.48216158427091 -99.16439425028653 98.48216158427091 -80.92551046122404 Q 98.48216158427091 -69.43644063700529 105.91925460184903 -61.5403011106381 Q 113.35634761942717 -53.64416158427092 123.74778951395841 -53.64416158427092 Q 130.92332442606778 -53.64416158427092 137.7603244260678 -57.76020809305997 Q 144.5973244260678 -61.87625460184904 149.79046395243498 -68.80302205790372 Q 154.98360347880217 -75.72978951395842 158.21488253153655 -84.60304537333342 Q 161.4461615842709 -93.47630123270841 161.4461615842709 -102.99071993388029 L 161.4461615842709 -80.04332442606778 L 161.4461615842709 -143.95616158427092 Q 161.4461615842709 -161.14365010966154 154.78353365458344 -168.51925484598968 Q 148.12090572489592 -175.8948595823178 132.64146383036467 -175.8948595823178 Q 125.22490572489592 -175.8948595823178 117.75448714579436 -174.1099525998959 Q 110.2840685666928 -172.32504561747402 102.72388253153655 -168.69878975809905 Q 95.16369649638028 -165.07253389872403 87.51374300516935 -159.25102217997403 Q 79.86378951395841 -153.42951046122403 72.08816158427092 -145.3563009885678 Z " /><text class="label" x="35.51816158427091" y="-35.51816158427091">wght:400 | wdth:100 | opsz:19</text><path class="ghost" d="M 680.168 -39.22934447488689 Q 699.4358032226562 -47.49734447488689 718.5998061523437 -51.31334447488689 Q 737.7638090820312 -55.12934447488689 760.2175664438101 -55.12934447488689 Q 780.4467081280048 -55.12934447488689 794.6570410945012 -52.10834447488688 Q 808.8673740609976 -49.08734447488689 817.8436869910606 -42.40934447488689 Q 826.8199999211238 -35.731344474886896 830.941712118765 -25.078344474886876 Q 835.0634243164062 -14.425344474886884 835.0634243164062 0.5206555251131135 L 835.0634243164062 56.806655525113115 Q 835.0634243164062 66.6330526466356 835.2743244628906 73.99210371966342 Q 835.485224609375 81.35115479269123 835.7220748291015 87.40236802382816 Q 835.9589250488282 93.45358125496509 836.5137752685547 98.21774726416534 Q 837.0686254882812 102.98191327336558 837.80842578125 107.05065552511311 L 782.5349250488281 107.05065552511311 Q 782.1131247558594 105.45180493917562 781.7691746826172 103.79167957296468 Q 781.425224609375 102.13155420675373 781.2402745361328 99.88693248521356 Q 781.0553244628907 97.64231076367338 781.0293743896484 95.04238182603387 Q 781.0034243164063 92.44245288839437 781.0034243164063 89.2044993612804 Q 781.0034243164063 86.35515186300374 781.0034243164063 83.62620178976155 Q 781.0034243164063 80.89725171651936 781.0034243164063 78.19425171651936 Q 781.0034243164063 75.49125171651937 781.0034243164063 72.81420178976155 Q 781.0034243164063 70.13715186300374 781.0034243164063 67.37895215597248 L 781.0034243164063 74.77606579233613 Q 777.6421416313358 83.17970772681767 772.323929824457 89.84553111327007 Q 767.0057180175781 96.51135449972249 759.786066040039 101.09310486593343 Q 752.5664140625 105.67485523214437 743.9417121582031 107.95275537862874 Q 735.3170102539062 110.23065552511312 725.050408203125 110.23065552511312 Q 700.9673039550781 110.23065552511312 686.8880014648438 98.46135596456624 Q 672.8086989746093 86.69205640401937 672.8086989746093 65.54835596456624 Q 672.8086989746093 50.49337889500494 680.674249633789 39.7099173565434 Q 688.5398002929687 28.926455818081863 705.3763343079867 21.823355964566233 Q 722.2128683230045 14.720256111050617 748.4427958107331 11.300106330777169 Q 774.6727232984615 7.879956550503735 811.2134243164062 7.879956550503735 L 811.2134243164062 28.82265552511312 Q 771.1793127441406 28.82265552511312 749.8935565185546 36.85050574483968 Q 728.6078002929687 44.87835596456624 728.504 61.037856696988115 Q 728.4001997070312 69.62385669698811 734.10517797388 76.09425611105061 Q 739.8101562407288 82.56465552511311 748.3748076171875 82.56465552511311 Q 754.8770547223772 82.56465552511311 760.8505292271205 78.67832059602004 Q 766.8240037318639 74.79198566692698 771.3244129987444 68.32067008332473 Q 775.824822265625 61.84935449972249 778.4141232910156 53.4495401329399 Q 781.0034243164063 45.049725766157316 781.0034243164063 36.11775098409748 L 781.0034243164063 62.84865552511312 L 781.0034243164063 2.7453252094458804 Q 781.0034243164063 -12.273063686774563 773.6054213867187 -18.751904520283844 Q 766.2074184570313 -25.23074535379314 747.6539118652344 -25.23074535379314 Q 739.6652099609375 -25.23074535379314 732.1242584228515 -24.03659557351969 Q 724.5833068847656 -22.84244579324627 717.3863054199219 -20.4281961594572 Q 710.1893039550781 -18.013946525668132 703.3622026367187 -14.119347111605649 Q 696.5351013183594 -10.224747697543137 689.708 -4.962748283480636 Z " /><text class="label" x="656" y="107.05065552511311">wght:900 | wdth:108 | opsz:12</text><path class="ghost" d="M 687.8603755471739 -153.97237554717393 Q 705.9629098489318 -162.26384124541613 724.0849988992247 -166.0915740945372 Q 742.2070879495177 -169.9193069436583 763.3683103991872 -169.9193069436583 Q 782.4008955648272 -169.9193069436583 795.8444591831791 -166.8983069436583 Q 809.2880228015309 -163.8773069436583 817.8064828873557 -157.18366314483018 Q 826.3249429731806 -150.49001934600207 830.2561249584195 -139.80182079863877 Q 834.1873069436583 -129.1136222512755 834.1873069436583 -114.09722515654894 L 834.1873069436583 -57.98330694365832 Q 834.1873069436583 -48.0012093826827 834.3502178933654 -40.609812911705674 Q 834.5131288430724 -33.21841644072863 834.6916835916076 -27.204886131954986 Q 834.8702383401427 -21.191355823181347 835.3746149880919 -16.508950983414692 Q 835.8789916360412 -11.826546143648038 836.5619230325256 -7.786238340142692 L 781.485347837213 -7.692375547173942 Q 781.1517040383849 -9.091447446588004 780.8219711892638 -10.672664792779411 Q 780.4922383401426 -12.253882138970816 780.3215054910216 -14.453367813147715 Q 780.1507726419005 -16.652853487324613 780.1429507424865 -19.181696304358653 Q 780.1351288430724 -21.710539121392692 780.1351288430724 -24.77217966022541 Q 780.1351288430724 -27.442361020806754 780.1351288430724 -30.114073423150504 Q 780.1351288430724 -32.78578582549426 780.1312178933654 -35.49269677520128 Q 780.1273069436584 -38.19960772490832 780.1273069436584 -40.94953912139269 Q 780.1273069436584 -43.699470517877074 780.1273069436584 -46.686620908502064 L 780.1273069436584 -39.16435688151343 Q 777.5992797517519 -31.100550274180335 772.9920261968261 -24.609613301302137 Q 768.3847726419006 -18.11867632842394 761.8266631448303 -13.608012082818473 Q 755.2685536477599 -9.097347837213004 747.2716222512755 -6.8283273904356605 Q 739.2746908547912 -4.559306943658317 729.7190470559631 -4.559306943658317 Q 707.2427317483458 -4.559306943658317 694.0770193460021 -16.49995074248644 Q 680.9113069436584 -28.440594541314567 680.9113069436584 -49.405128843072376 Q 680.9113069436584 -64.38474006790712 688.5276631448302 -75.1486468578335 Q 696.1440193460021 -85.91255364775988 712.0385288248872 -93.05190984893176 Q 727.9330383037722 -100.19126605010364 752.3763216874968 -103.6736222512755 Q 776.8196050712214 -107.15597845244739 810.3373069436584 -107.15597845244739 L 810.3373069436584 -86.178498227838 Q 774.3094441506896 -86.178498227838 755.276375547174 -78.19721063018176 Q 736.2433069436584 -70.21592303252551 736.2433069436584 -54.222060239556754 Q 736.2433069436584 -45.55784124541613 741.3436116265227 -38.89157409453722 Q 746.4439163093872 -32.22530694365832 753.4465945413145 -32.22530694365832 Q 758.4828468955277 -32.22530694365832 763.3664183240992 -36.05583077655998 Q 768.2499897526707 -39.88635460946165 771.9861140464067 -46.24747457538811 Q 775.7222383401427 -52.608594541314574 777.9247726419005 -60.733633151261216 Q 780.1273069436584 -68.85867176120786 780.1273069436584 -77.35271722197864 L 780.1273069436584 -52.01170403838488 L 780.1273069436584 -111.83703667338806 Q 780.1273069436584 -127.17041714675693 773.7360193460021 -133.6627861785084 Q 767.3447317483458 -140.15515521025986 751.0798003518614 -140.15515521025986 Q 743.8127317483459 -140.15515521025986 736.851930295709 -138.8753333108458 Q 729.8911288430724 -137.59551141143174 723.2287726419005 -134.98893621611924 Q 716.5664164407286 -132.38236102080674 710.2025054910216 -128.15501063018175 Q 703.8385945413146 -123.92766023955676 697.4473069436583 -118.22340325713489 Z " /><text class="label" x="663.7393069436583" y="-7.739306943658317">wght:900 | wdth:100 | opsz:13</text><path class="ghost" d="M 556.7394390366353 509.72 Q 581.8010182602682 501.452 605.9849143784322 497.63599999999997 Q 630.1688104965963 493.82 658.6046099162927 493.82 Q 684.3240293940196 493.82 702.269769026494 496.841 Q 720.2155086589686 499.86199999999997 731.5580284268472 506.53999999999996 Q 742.9005481947257 513.218 748.1455780883368 523.871 Q 753.3906079819478 534.524 753.3906079819478 549.47 L 753.3906079819478 605.756 Q 753.3906079819478 614.881360274152 753.8676079819478 622.0465216898104 Q 754.3446079819478 629.2116831054688 754.9806079819479 635.3387055278578 Q 755.6166079819478 641.4657279502467 756.5706079819479 646.5845231676603 Q 757.5246079819478 651.703318385074 758.7966079819478 656 L 705.2136468003072 656 Q 704.2596468003072 653.2989870147705 703.7826468003072 650.932072731018 Q 703.3056468003072 648.5651584472656 702.9876468003072 645.8023632703508 Q 702.6696468003072 643.0395680934361 702.5106468003072 639.7905736585344 Q 702.3516468003072 636.5415792236328 702.3516468003072 632.2712137522977 Q 702.3516468003072 628.652 702.3516468003072 625.79 Q 702.3516468003072 622.928 702.3516468003072 620.225 Q 702.3516468003072 617.522 702.3516468003072 614.978 Q 702.3516468003072 612.434 702.3516468003072 610.208 L 702.3516468003072 617.5893218425404 Q 694.945813923497 627.8384977583452 685.8078888091677 635.688038490989 Q 676.6699636948384 643.5375792236329 665.7673325302876 648.7845792236328 Q 654.8647013657369 654.0315792236328 642.6296494248189 656.6057896118164 Q 630.394597483901 659.18 616.2817559311666 659.18 Q 584.4817559311666 659.18 565.999597483901 648.2694207763672 Q 547.5174390366353 637.3588415527344 547.5174390366353 615.4168415527344 Q 547.5174390366353 600.0461886080228 556.5200182602681 589.2270943040114 Q 565.5225974839009 578.408 586.9974339537134 571.571 Q 608.4722704235259 564.734 643.6498191034482 561.713 Q 678.8273677833706 558.692 730.7490235092915 558.692 L 730.7490235092915 577.1677922363281 Q 668.8471326401509 577.1677922363281 635.7687664292134 585.8364753417968 Q 602.690400218276 594.5051584472657 602.054400218276 612.3576831054687 Q 601.4184002182759 621.4270493164063 610.6328585235383 627.074732421875 Q 619.8473168288006 632.7224155273437 637.2729196274556 632.7224155273437 Q 651.8718502217637 632.7224155273437 663.8045778480192 628.5130626220703 Q 675.7373054742749 624.3037097167969 684.3810034200059 617.0730106811524 Q 693.0247013657369 609.8423116455078 697.688174083022 599.6133750014886 Q 702.3516468003072 589.3844383574695 702.3516468003072 577.4222077636718 L 702.3516468003072 611.798 L 702.3516468003072 549.8056083225559 Q 702.3516468003072 535.1112124039934 689.6014364121236 528.0123984383248 Q 676.85122602394 520.9135844726562 646.5044883530416 520.9135844726562 Q 634.9960675766744 520.9135844726562 624.54022602394 521.799215637207 Q 614.0843844712056 522.6848468017578 604.0451221421041 524.5848987426758 Q 594.0058598130025 526.4849506835938 584.5421767075337 529.5326654785156 Q 575.078493602065 532.5803802734375 565.6148104965963 537.068 Z " /><text class="label" x="531.3630235092916" y="656">wght:805 | wdth:150 | opsz:12</text><path class="ghost" d="M 292.8246163718185 247.4233836281815 Q 316.82839530248253 238.3551625588456 339.5910251242599 234.1390520241776 Q 362.35365494603724 229.92294148950964 387.46521280736533 229.92294148950964 Q 409.7660303122482 229.92294148950964 427.02014084691615 232.94394148950965 Q 444.2742513815841 235.96494148950964 456.127582985588 243.17642220240026 Q 467.9809145895919 250.3879029152909 474.3769865500411 262.24123451929484 Q 480.7730585104904 274.0945661232987 480.7730585104904 291.44122933130654 L 480.7730585104904 341.8589414895097 Q 480.7730585104904 351.39894148950964 481.383428688713 358.2050905983964 Q 481.99379886693566 365.0112397072831 483.29664975804894 370.4941291726151 Q 484.5995006491622 375.97701863794714 486.4870918967208 380.7726484597245 Q 488.3746831442794 385.5682782815018 491.2471252829513 390.50249935083775 L 448.4092024313888 393.70338362818154 Q 446.92172171849813 390.5746432717362 446.04461118383017 386.29683095484165 Q 445.1675006491622 382.01901863794717 444.44939011449424 377.3154659646073 Q 443.73127957982626 372.61191329126746 443.30553922338095 367.4313606179276 Q 442.87979886693563 362.2508079445878 442.87979886693563 357.04984651880653 Q 442.87979886693563 354.35206758814246 442.87979886693563 352.55702901392374 Q 442.87979886693563 350.76199043970496 442.746428688713 347.9256202614823 Q 442.61305851049036 345.0892500832596 442.61305851049036 340.94480794458775 Q 442.61305851049036 336.8003658059159 442.61305851049036 330.3065201027909 L 442.61305851049036 341.8883658059159 Q 436.8482410056075 352.8645868752518 426.7747602927169 362.6561395485917 Q 416.7012795798263 372.4476922219315 404.07857779759973 379.69524489527134 Q 391.4558760153732 386.9427975686112 376.9764338767013 391.11286952906045 Q 362.4969917380294 395.28294148950965 347.33551102513877 395.28294148950965 Q 319.0031356589279 395.28294148950965 302.10309708470913 384.09646077661904 Q 285.20305851049034 372.9099800637284 285.20305851049034 351.76820113306434 Q 285.20305851049034 336.98642220240026 293.41457779759975 326.6822730935136 Q 301.6260970847091 316.3781239846268 322.1883567282638 310.07460469751743 Q 342.75061637181847 303.7710854104081 377.06898655004113 301.2835661232987 Q 411.3873567282638 298.79604683618936 463.2830585104904 298.79604683618936 L 463.2830585104904 303.4929518654862 Q 394.5741742331466 303.4929518654862 361.0356163718185 314.25891329126745 Q 327.4970585104904 325.0248747170487 326.86105851049035 347.62375899439246 Q 326.2250585104904 361.4211625588456 337.08831815404506 367.6990520241776 Q 347.9515777975997 373.97694148950967 369.5860199362716 373.97694148950967 Q 387.13772171849814 373.97694148950967 400.6527217184981 369.6583116677323 Q 414.16772171849817 365.33968184595494 423.6256111838302 357.0408309548417 Q 433.08350064916226 348.7419800637284 437.8482795798263 335.9550572121659 Q 442.61305851049036 323.1681343606034 442.61305851049036 306.23154830103306 L 442.61305851049036 345.50027828150183 L 442.61305851049036 282.39294148950967 Q 442.61305851049036 259.60895186548623 428.6670970847091 248.1348465188065 Q 414.7211356589279 236.66074117212682 383.546693520256 236.66074117212682 Q 373.38113565892786 236.66074117212682 363.61046726293176 238.19948152857214 Q 353.83979886693567 239.73822188501745 343.5612795798263 244.41614473657995 Q 333.28276029271694 249.09406758814245 322.65539011449425 257.3369132912675 Q 312.0280199362716 265.5797589943925 300.46705851049035 279.3059696877518 Z " /><text class="label" x="263.89705851049035" y="392.10294148950965">wght:400 | wdth:150 | opsz:62</text><path class="ghost" d="M 829.2510798260863 360.6369201739136 Q 853.9182645184692 351.91410486629644 878.3284619671996 347.8706972124878 Q 902.7386594159301 343.82728955867924 930.6691826468495 343.82728955867924 Q 955.6912853906146 343.82728955867924 974.1205238136539 346.84828955867926 Q 992.5497622366933 349.86928955867927 1004.7362467365806 356.8504997637574 Q 1016.9227312364679 363.8317099688355 1023.0757208388943 375.1669329302613 Q 1029.2287104413208 386.50215589168704 1029.2287104413208 402.81260181453865 L 1029.2287104413208 455.7632895586793 Q 1029.2287104413208 464.79138711965487 1029.7815129925903 471.5053255828194 Q 1030.3343155438597 478.21926404598395 1031.3493283002074 484.1761195500701 Q 1032.364341056555 490.1329750541562 1033.8489589154417 495.22048829236036 Q 1035.3335767743285 500.3080015305645 1037.5152073895629 505.09765894344486 L 979.6983665692504 506.91692017391364 Q 978.4411563641722 504.10206507137457 977.7367487103636 500.79125690487064 Q 977.0323410565551 497.48044873836676 976.4869334027464 493.5665890407523 Q 975.9415257489379 489.65272934313793 975.6309206463989 485.2505125026664 Q 975.3203155438598 480.84829566219486 975.3203155438598 475.9395223108622 Q 975.3203155438598 472.7466905596558 975.3203155438598 470.49111096981204 Q 975.3203155438598 468.2355313799683 975.2445129925902 465.4567288286988 Q 975.1687104413207 462.67792627742926 975.1687104413207 459.2242956621949 Q 975.1687104413207 455.7706650469605 975.1687104413207 451.1189834063355 L 975.1687104413207 460.9417786833241 Q 968.8771656712893 471.6629349000322 959.5303457101136 480.6632458963479 Q 950.1835257489379 489.6635568926636 938.6135002362425 496.04759516170657 Q 927.0434747235472 502.43163343074957 914.0498441083129 505.8094614947144 Q 901.0562134930785 509.18728955867925 886.7610032880004 509.18728955867925 Q 856.9318696210082 509.18728955867925 838.9352900311644 497.9130793536011 Q 820.9387104413207 486.638869148523 820.9387104413207 465.1516844561402 Q 820.9387104413207 450.28542284068044 829.6985002362426 439.88097405856655 Q 838.4582900311644 429.47652527645266 859.9330163069245 422.9427354815308 Q 881.4077425826846 416.40894568660894 916.8939175679717 413.69115589168706 Q 952.3800925532588 410.9733660967652 1005.3787104413207 410.9733660967652 L 1005.3787104413207 423.6859517901246 Q 942.503449210852 423.6859517901246 910.8180798260863 432.7193722002808 Q 879.1327104413207 441.75279261043704 878.4967104413207 461.06205384090583 Q 877.8607104413206 471.16410486629644 886.4742319210601 476.34269721248785 Q 895.0877534007996 481.52128955867926 912.811130851477 481.52128955867926 Q 927.7882992213151 481.52128955867926 939.3498706498865 477.4446573273401 Q 950.911442078458 473.3680250960009 959.0428915675066 465.85244712226194 Q 967.174341056555 458.33686914852296 971.1715257489379 446.99456491357637 Q 975.1687104413207 435.6522606786297 975.1687104413207 421.21590076473393 L 975.1687104413207 460.44084363582766 L 975.1687104413207 400.6375598289495 Q 975.1687104413207 382.0580328712056 961.8422900311645 372.77291579257917 Q 948.5158696210082 363.48779871395266 917.0782390057739 363.48779871395266 Q 906.5398696210082 363.48779871395266 896.887092582434 364.43440381649174 Q 887.2343155438598 365.3810089190308 877.6795257489379 368.3428497393433 Q 868.124735954016 371.3046905596558 858.8269334027465 376.56057220028083 Q 849.5291308514769 381.8164538409058 839.7007104413207 390.5622069170777 Z " /><text class="label" x="805.9927104413207" y="506.00728955867925">wght:900 | wdth:150 | opsz:41</text><path class="ghost" d="M 448.25177656309216 -458.987 Q 465.15719148008435 -468.209 481.79126606504525 -472.502 Q 498.4253406500062 -476.795 515.9414250944924 -476.795 Q 531.1971010945299 -476.795 543.9760212427045 -473.774 Q 556.7549413908791 -470.75300000000004 565.9555751686736 -463.439 Q 575.156208946468 -456.125 580.4662910946238 -444.04100000000005 Q 585.7763732427796 -431.957 585.7763732427796 -414.149 L 585.7763732427796 -364.85900000000004 Q 585.7763732427796 -354.4477654761338 586.0943732427796 -347.51321257205126 Q 586.4123732427796 -340.57865966796874 587.3663732427797 -335.2829507992393 Q 588.3203732427796 -329.98724193050987 589.9103732427797 -325.65635725483145 Q 591.5003732427797 -321.325472579153 594.0443732427797 -316.523 L 549.8156273931703 -312.707 Q 548.8616273931702 -314.5828656768799 548.0666273931703 -318.36351792144774 Q 547.2716273931703 -322.1441701660156 546.6356273931702 -326.60810577174595 Q 545.9996273931703 -331.0720413774763 545.6816273931703 -335.85581323024206 Q 545.3636273931703 -340.63958508300783 545.3636273931703 -344.80080474494486 Q 545.3636273931703 -346.415 545.3636273931703 -347.846 Q 545.3636273931703 -349.277 545.2046273931703 -352.139 Q 545.0456273931702 -355.00100000000003 545.0456273931702 -359.612 Q 545.0456273931702 -364.223 545.0456273931702 -372.173 L 545.0456273931702 -359.7575620103316 Q 544.4547721983341 -350.8389554998225 538.8110296297366 -342.0822702914151 Q 533.1672870611391 -333.3255850830078 524.6584094366273 -326.4885850830078 Q 516.1495318121156 -319.65158508300783 505.62506910459604 -315.5432925415039 Q 495.1006063970765 -311.435 484.3914362310609 -311.435 Q 465.9474362310609 -311.435 454.55560639707653 -323.7294149169922 Q 443.16377656309214 -336.0238298339844 443.16377656309214 -356.0578298339844 Q 443.16377656309214 -370.3256432354267 449.89319148008434 -380.47132161771333 Q 456.62260639707654 -390.617 471.5385206317637 -397.136 Q 486.4544348664508 -403.65500000000003 510.02555569028584 -406.517 Q 533.5966765141209 -409.379 567.258074902936 -409.379 L 567.258074902936 -404.09485083007814 Q 523.7758837408265 -404.09485083007814 504.471203076764 -393.8065104980469 Q 485.1665224127015 -383.51817016601564 485.1665224127015 -362.20265966796876 Q 485.1665224127015 -348.30397900390625 491.9391646439305 -341.03663867187504 Q 498.7118068751595 -333.7692983398438 510.27514948789684 -333.7692983398438 Q 518.5379700096602 -333.7692983398438 525.0591355195654 -337.69586399774965 Q 531.5803010294705 -341.6224296556556 536.107916420793 -349.1743267052692 Q 540.6355318121156 -356.7262237548828 542.840579602643 -367.77157724520055 Q 545.0456273931702 -378.8169307355183 545.0456273931702 -393.03914916992187 L 545.0456273931702 -361.67900000000003 L 545.0456273931702 -422.3512558626742 Q 545.0456273931702 -446.9780828379038 537.2803348516663 -458.51039224903 Q 529.5150423101625 -470.04270166015624 512.1887975591859 -470.04270166015624 Q 506.5162124761781 -470.04270166015624 500.41804231016243 -468.05282403564456 Q 494.3198721441468 -466.0629464111328 487.4781168951234 -460.3084837036133 Q 480.63636164609994 -454.55402099609375 473.0510213140687 -444.40411469726564 Q 465.46568098203744 -434.2542083984375 456.7673406500062 -417.96500000000003 Z " /><text class="label" x="420.6600749029359" y="-314.615">wght:481 | wdth:100 | opsz:72</text><path class="ghost" d="M 343.235 -379.6393098591453 Q 360.93531787109373 -388.8613098591453 378.08169775390627 -393.1543098591453 Q 395.22807763671875 -397.4473098591453 413.32333349609377 -397.4473098591453 Q 429.1156513671875 -397.4473098591453 442.25368627929686 -394.4263098591453 Q 455.39172119140625 -391.4053098591453 464.8201766357422 -384.0913098591453 Q 474.2486320800781 -376.7773098591453 479.66874255371096 -364.6933098591453 Q 485.08885302734376 -352.6093098591453 485.08885302734376 -334.8013098591453 L 485.08885302734376 -285.5113098591453 Q 485.08885302734376 -275.1327168415672 485.4453220214844 -268.1751858357078 Q 485.801791015625 -261.2176548298484 486.8134945068359 -255.95142033277813 Q 487.82519799804686 -250.6851858357078 489.4729014892578 -246.33448234449688 Q 491.1206049804688 -241.98377885328594 493.74154296875 -237.1753098591453 L 451.8911979980469 -233.35930985914533 Q 450.8602600097656 -235.4211858357078 450.04602551269534 -239.33335832105936 Q 449.23179101562505 -243.24553080641093 448.5765565185547 -247.77446879469218 Q 447.9213220214844 -252.30340678297344 447.5840875244141 -257.169579268325 Q 447.2468530273438 -262.03575175367655 447.2468530273438 -266.3236277302391 Q 447.2468530273438 -268.0290347126609 447.2468530273438 -269.4792692097312 Q 447.2468530273438 -270.92950370680154 447.0878530273437 -273.79150370680156 Q 446.92885302734373 -276.6535037068016 446.92885302734373 -281.24526920973125 Q 446.92885302734373 -285.83703471266097 446.92885302734373 -293.7100967243797 L 446.92885302734373 -281.3080967243797 Q 445.71581811523436 -272.13481376539534 439.45325219726567 -263.2167032917625 Q 433.19068627929687 -254.2985928181297 424.08535485839843 -247.36542033277811 Q 414.9800234375 -240.43224784742657 403.8269265136719 -236.25977885328595 Q 392.67382958984376 -232.0873098591453 381.323263671875 -232.0873098591453 Q 361.7636628417969 -232.0873098591453 349.8206899414063 -244.21490287672344 Q 337.8777170410156 -256.3424958943016 337.8777170410156 -276.49190287672343 Q 337.8777170410156 -290.8403718708641 344.72882751464846 -301.0163718708641 Q 351.57993798828124 -311.19237187086406 367.0593798828125 -317.67290287672347 Q 382.53882177734374 -324.1534338825828 407.23900207519534 -326.9577303913719 Q 431.9391823730469 -329.76202690016095 467.59885302734375 -329.76202690016095 L 467.59885302734375 -325.2613098591453 Q 420.3578024902344 -325.2613098591453 399.0068702392578 -314.7096063679344 Q 377.65593798828127 -304.1579028767234 377.579 -282.3415579060203 Q 377.50206201171875 -268.03155790602034 385.09945544433594 -260.7124338825828 Q 392.69684887695314 -253.39330985914532 405.9733876953125 -253.39330985914532 Q 415.67498852539063 -253.39330985914532 423.31983740234375 -257.4067788532859 Q 430.96468627929687 -261.4202478474266 436.29248669433593 -269.14842033277813 Q 441.620287109375 -276.87659281812967 444.27457006835937 -288.25664128004377 Q 446.92885302734373 -299.6366897419578 446.92885302734373 -314.3698486775047 L 446.92885302734373 -282.33130985914534 L 446.92885302734373 -343.8591858357078 Q 446.92885302734373 -368.58624784742653 438.36847314453127 -380.2701858357078 Q 429.8080932617188 -391.9541238239891 410.90498852539065 -391.9541238239891 Q 404.6808916015625 -391.9541238239891 398.0759671630859 -389.9448273152 Q 391.4710427246094 -387.93553080641095 384.0903527832031 -382.1487032917625 Q 376.7096628417969 -376.36187577711405 368.57244189453127 -366.18075175367653 Q 360.43522094726563 -355.99962773023907 351.185 -339.6175037068016 Z " /><text class="label" x="314.615" y="-235.2673098591453">wght:400 | wdth:106 | opsz:72</text><path class="ghost" d="M 992.875 -272.2442810370964 Q 1012.038537109375 -281.4662810370964 1031.816025390625 -285.7592810370964 Q 1051.593513671875 -290.0522810370964 1073.0662534555288 -290.0522810370964 Q 1091.9191290264423 -290.0522810370964 1107.1858260066106 -287.0312810370964 Q 1122.4525229867788 -284.01028103709643 1133.2267664588342 -276.6962810370964 Q 1144.0010099308895 -269.3822810370964 1150.0455313326322 -257.29828103709644 Q 1156.090052734375 -245.21428103709638 1156.090052734375 -227.4062810370964 L 1156.090052734375 -178.1162810370964 Q 1156.090052734375 -168.40575671830828 1156.4985771484376 -161.8803299128586 Q 1156.9071015625 -155.35490310740892 1157.9968881835937 -149.76137774248292 Q 1159.0866748046874 -144.16785237755693 1160.8124614257813 -139.5047499669895 Q 1162.538248046875 -134.84164755642206 1165.263296875 -129.7802810370964 L 1107.2526748046876 -125.9642810370964 Q 1106.1176259765625 -128.0356286933464 1105.2773637695313 -131.85931472850265 Q 1104.4371015625 -135.6830007636589 1103.7558393554687 -140.38987102035532 Q 1103.0745771484376 -145.09674127705176 1102.7113149414063 -150.1782308836366 Q 1102.348052734375 -155.2597204902214 1102.348052734375 -159.92417108764786 Q 1102.348052734375 -161.9353913886589 1102.348052734375 -163.41165359569015 Q 1102.348052734375 -164.8879158027214 1102.189052734375 -167.7499158027214 Q 1102.030052734375 -170.6119158027214 1102.030052734375 -175.17765359569015 Q 1102.030052734375 -179.7433913886589 1102.030052734375 -187.5123425605339 L 1102.030052734375 -175.02722892417026 Q 1100.3154060356326 -165.39921711664186 1093.8204544826601 -156.17458452608787 Q 1087.3255029296874 -146.9499519355339 1077.9944233398437 -139.88664090037764 Q 1068.66334375 -132.8233298652214 1057.6285263671875 -128.7578054511589 Q 1046.593708984375 -124.6922810370964 1035.1503671875 -124.6922810370964 Q 1014.0811591796875 -124.6922810370964 1000.617244140625 -136.9817077949089 Q 987.1533291015625 -149.2711345527214 987.1533291015625 -169.57670779490888 Q 987.1533291015625 -183.7163091320483 994.5566889648437 -193.70477067050984 Q 1001.960048828125 -203.69323220897138 1019.1738196595492 -210.1217077949089 Q 1036.3875904909733 -216.55018338084642 1064.109055210147 -219.27639675975266 Q 1091.8305199293209 -222.0026101386589 1132.240052734375 -222.0026101386589 L 1132.240052734375 -214.68628103709642 Q 1085.3386240234374 -214.68628103709642 1064.3193364257813 -205.32849441600266 Q 1043.300048828125 -195.9707077949089 1043.119 -175.8020857245964 Q 1042.937951171875 -164.0360857245964 1048.7691085158722 -158.1971833808464 Q 1054.6002658598695 -152.3582810370964 1066.27026953125 -152.3582810370964 Q 1075.4826203962054 -152.3582810370964 1082.2672045200893 -156.12424023376758 Q 1089.0517886439732 -159.8901994304388 1093.6352497907367 -167.25307568298635 Q 1098.2187109375 -174.6159519355339 1100.1243818359376 -185.8108240415743 Q 1102.030052734375 -197.00569614761469 1102.030052734375 -211.7685378730339 L 1102.030052734375 -174.9362810370964 L 1102.030052734375 -232.33210842307614 Q 1102.030052734375 -255.85924878414033 1092.587564453125 -267.18533815280585 Q 1083.145076171875 -278.51142752147143 1060.9454775390625 -278.51142752147143 Q 1054.36266015625 -278.51142752147143 1047.8471538085937 -277.05721414256516 Q 1041.3316474609376 -275.6030007636589 1034.3844033203125 -270.74131179881516 Q 1027.4371591796876 -265.87962283397144 1020.103439453125 -257.0515204902214 Q 1012.7697197265625 -248.2234181464714 1004.323 -233.5759158027214 Z " /><text class="label" x="970.615" y="-127.8722810370964">wght:900 | wdth:114 | opsz:72</text><path class="ghost" d="M 343.4513370280779 197.01299999999998 Q 367.30143407397634 187.791 390.0389193034685 183.498 Q 412.77640453296067 179.20499999999998 437.58105399397334 179.20499999999998 Q 459.5236385088847 179.20499999999998 476.85504983419264 182.226 Q 494.18646115950065 185.24699999999999 506.27072094390576 192.56099999999998 Q 518.3549807283108 199.875 525.033099796163 211.95899999999997 Q 531.7112188640153 224.043 531.7112188640153 241.851 L 531.7112188640153 291.14099999999996 Q 531.7112188640153 300.6808437797732 532.3472188640154 307.3587277980897 Q 532.9832188640154 314.03661181640626 534.4142188640153 319.4427037546258 Q 535.8452188640154 324.8487956928454 537.9122188640154 329.6188672003495 Q 539.9792188640154 334.3889387078536 543.1592188640154 339.477 L 499.9063665690935 343.293 Q 498.3163665690935 340.1130606536865 497.3623665690935 335.5021273727417 Q 496.40836656909346 330.8911940917969 495.6133665690935 325.8031715632847 Q 494.81836656909354 320.7151490347726 494.3413665690935 315.15012304033553 Q 493.8643665690935 309.5850970458984 493.8643665690935 304.1790456686581 Q 493.8643665690935 301.635 493.8643665690935 300.04499999999996 Q 493.8643665690935 298.455 493.7053665690935 295.59299999999996 Q 493.5463665690935 292.731 493.5463665690935 288.279 Q 493.5463665690935 283.827 493.5463665690935 276.513 L 493.5463665690935 288.9150253642689 Q 488.1404517801263 300.04505293412643 477.96460326640675 310.2210749900124 Q 467.7887547526873 320.3970970458984 454.9099003215349 328.0290970458984 Q 442.03104589038253 335.66109704589843 427.2442885051287 340.1130485229492 Q 412.4575311198747 344.565 397.1937252116716 344.565 Q 369.5277252116716 344.565 352.8325311198747 333.2759029541015 Q 336.13733702807787 321.9868059082031 336.13733702807787 300.9988059082031 Q 336.13733702807787 286.37088553560693 344.24643407397633 276.19494276780347 Q 352.35553111987474 266.019 372.86677444610103 259.818 Q 393.3780177723273 253.617 427.7223917263172 251.23199999999997 Q 462.06676568030707 248.84699999999998 514.2192779460466 248.84699999999998 L 514.2192779460466 251.39197045898436 Q 444.89663658862474 251.39197045898436 411.66641295581223 262.3625822753906 Q 378.4361893229997 273.3331940917969 377.80018932299976 296.54661181640626 Q 377.16418932299973 310.8558354492187 387.97546762090695 317.05644726562497 Q 398.7867459188141 323.2570590820312 420.7277631755388 323.2570590820312 Q 438.53515317274866 323.2570590820312 452.04955703365823 318.9641505020805 Q 465.5639608945678 314.67124192212975 474.9445033924752 306.2443931168266 Q 484.32504589038257 297.8175443115234 488.935706229738 284.6207040822099 Q 493.5463665690935 271.4238638528963 493.5463665690935 253.61602954101562 L 493.5463665690935 294.32099999999997 L 493.5463665690935 231.67632454537056 Q 493.5463665690935 207.50865896029086 479.39541509204275 195.2657999391298 Q 465.2444636149919 183.02294091796873 433.76217247729664 183.02294091796873 Q 423.90426952319507 183.02294091796873 414.3644636149919 184.6127953491211 Q 404.8246577067888 186.20264978027342 394.64894884448415 191.29040716552734 Q 384.47323998217945 196.37816455078124 373.8206281657732 205.44081518554685 Q 363.16801634936695 214.5034658203125 351.4024045329607 229.767 Z " /><text class="label" x="314.8332779460466" y="341.385">wght:400 | wdth:150 | opsz:72</text></g></svg>